<?xml version="1.0" standalone="no"?>
<!DOCTYPE svg PUBLIC "-//W3C//DTD SVG 20010904//EN"
 "http://www.w3.org/TR/2001/REC-SVG-20010904/DTD/svg10.dtd">
<svg version="1.0" xmlns="http://www.w3.org/2000/svg"
 width="192.000000pt" height="192.000000pt" viewBox="0 0 192.000000 192.000000"
 preserveAspectRatio="xMidYMid meet">
<metadata>
Created by potrace 1.11, written by Peter Selinger 2001-2013
</metadata>
<g transform="translate(0.000000,192.000000) scale(0.100000,-0.100000)"
fill="#000000" stroke="none">
<path d="M750 1753 c-11 -8 -20 -21 -20 -29 0 -11 -19 -14 -94 -14 -51 0 -108
-5 -127 -12 -51 -17 -106 -59 -128 -98 -11 -19 -40 -125 -65 -235 -26 -110
-49 -208 -52 -218 -5 -16 0 -18 57 -15 l63 3 43 190 c25 108 51 201 62 215 28
39 60 50 144 50 75 0 81 -2 107 -30 l27 -29 184 0 c190 1 229 8 229 44 0 12
17 15 88 15 94 0 124 -10 153 -50 11 -14 36 -106 61 -218 l42 -193 61 3 c33 2
59 8 58 13 -1 6 -22 102 -48 215 -49 217 -66 257 -127 303 -46 35 -98 47 -200
47 -68 0 -88 3 -88 14 0 35 -29 41 -222 42 -146 0 -193 -3 -208 -13z"/>
<path d="M760 1485 c-61 -12 -141 -51 -181 -87 -72 -64 -135 -181 -143 -268
-2 -21 -6 -42 -9 -47 -3 -5 -71 -8 -152 -8 -162 1 -195 -8 -221 -56 -17 -34
-18 -79 -2 -114 12 -27 72 -70 86 -61 4 2 13 2 19 -2 6 -4 34 -141 62 -305 29
-164 56 -309 61 -322 5 -13 21 -32 37 -42 25 -17 67 -18 622 -19 425 -1 606 1
630 10 21 6 42 23 52 41 10 18 38 154 69 330 28 165 54 302 56 305 3 3 14 6
25 6 32 2 35 3 56 21 29 26 43 57 43 94 0 38 -36 96 -65 106 -11 4 -139 7
-284 8 l-264 0 -4 40 c-20 246 -254 421 -493 370z m-266 -698 c7 -43 14 -140
22 -273 8 -128 0 -154 -46 -154 -45 0 -57 29 -65 160 -4 63 -9 122 -10 130 -3
18 -8 128 -6 152 0 10 13 24 28 32 24 12 30 12 50 -1 13 -9 25 -29 27 -46z
m1022 20 c11 -36 4 -151 -11 -166 -10 -10 -95 -7 -98 4 -3 5 -3 21 -1 35 1 14
3 47 3 73 1 38 6 53 27 72 22 20 29 22 50 13 13 -6 27 -20 30 -31z m-352 -428
c-21 -23 -52 -24 -76 -2 -16 14 -18 34 -18 175 l0 159 53 49 52 48 3 -205 c2
-181 0 -208 -14 -224z m-347 270 c22 1 23 -1 22 -125 0 -110 -2 -127 -20 -145
-23 -23 -52 -25 -73 -3 -13 12 -16 41 -16 150 l0 134 33 -6 c17 -4 42 -6 54
-5z m686 -157 c-7 -100 -19 -127 -58 -127 -23 0 -31 5 -33 23 -3 19 1 22 28
22 24 0 31 4 28 17 -2 9 -14 20 -27 23 -28 6 -39 26 -16 28 8 1 22 3 30 4 8 1
15 7 15 13 0 17 -25 36 -41 33 -16 -4 -25 32 -10 41 5 4 28 5 50 3 l39 -4 -5
-76z"/>
</g>
</svg>
